<svg xmlns="http://www.w3.org/2000/svg" xmlns:xlink="http://www.w3.org/1999/xlink" width="191" zoomAndPan="magnify" viewBox="0 0 143.25 57.749998" height="77" preserveAspectRatio="xMidYMid meet" version="1.0"><defs><g/></defs><g fill="#000000" fill-opacity="1"><g transform="translate(9.664939, 40.081891)"><g><path d="M 2.265625 -22.1875 C 2.503906 -22.289062 2.757812 -22.378906 3.03125 -22.453125 C 3.300781 -22.515625 3.566406 -22.59375 3.828125 -22.6875 C 5.523438 -23.257812 7.578125 -23.71875 9.984375 -24.0625 C 12.367188 -24.394531 14.515625 -24.425781 16.421875 -24.15625 C 16.910156 -24.082031 17.421875 -23.96875 17.953125 -23.8125 C 18.484375 -23.644531 18.898438 -23.375 19.203125 -23 C 19.546875 -22.5625 19.820312 -21.640625 20.03125 -20.234375 C 20.226562 -18.816406 19.84375 -18.070312 18.875 -18 C 18.613281 -17.976562 18.34375 -17.992188 18.0625 -18.046875 C 17.78125 -18.097656 17.515625 -18.144531 17.265625 -18.1875 C 15.484375 -18.46875 13.828125 -18.582031 12.296875 -18.53125 C 10.765625 -18.46875 9.179688 -18.289062 7.546875 -18 C 7.523438 -16.6875 7.5625 -15.4375 7.65625 -14.25 C 9.039062 -14.414062 10.363281 -14.5625 11.625 -14.6875 C 12.882812 -14.8125 13.753906 -14.867188 14.234375 -14.859375 C 15.203125 -14.835938 15.6875 -14.222656 15.6875 -13.015625 C 15.675781 -11.796875 15.53125 -11 15.25 -10.625 C 14.90625 -10.164062 14.023438 -9.800781 12.609375 -9.53125 C 11.179688 -9.257812 9.757812 -9.066406 8.34375 -8.953125 C 8.53125 -7.953125 8.773438 -6.960938 9.078125 -5.984375 C 9.316406 -5.992188 9.585938 -6.015625 9.890625 -6.046875 C 10.171875 -6.066406 10.503906 -6.09375 10.890625 -6.125 C 12.359375 -6.238281 13.804688 -6.421875 15.234375 -6.671875 C 16.640625 -6.910156 17.941406 -7.210938 19.140625 -7.578125 C 19.265625 -7.609375 19.394531 -7.648438 19.53125 -7.703125 C 19.65625 -7.753906 19.785156 -7.800781 19.921875 -7.84375 C 20.222656 -7.925781 20.488281 -7.976562 20.71875 -8 C 21.207031 -8.03125 21.554688 -7.835938 21.765625 -7.421875 C 21.984375 -7.015625 22.117188 -6.53125 22.171875 -5.96875 C 22.273438 -4.707031 22.140625 -3.753906 21.765625 -3.109375 C 21.566406 -2.742188 21.195312 -2.414062 20.65625 -2.125 C 20.300781 -1.9375 19.8125 -1.75 19.1875 -1.5625 C 18.257812 -1.289062 17.082031 -1.0625 15.65625 -0.875 C 14.21875 -0.6875 12.738281 -0.554688 11.21875 -0.484375 C 10.300781 -0.421875 9.101562 -0.347656 7.625 -0.265625 C 6.144531 -0.179688 5.035156 -0.289062 4.296875 -0.59375 C 3.742188 -0.8125 3.3125 -1.171875 3 -1.671875 C 2.6875 -2.171875 2.4375 -2.664062 2.25 -3.15625 C 1.875 -4.070312 1.554688 -5.265625 1.296875 -6.734375 C 1.015625 -8.191406 0.800781 -9.703125 0.65625 -11.265625 C 0.507812 -12.816406 0.4375 -14.328125 0.4375 -15.796875 C 0.4375 -17.242188 0.53125 -18.425781 0.71875 -19.34375 C 0.882812 -20.175781 1.109375 -20.84375 1.390625 -21.34375 C 1.597656 -21.726562 1.890625 -22.007812 2.265625 -22.1875 Z M 2.265625 -22.1875 "/></g></g></g><g fill="#000000" fill-opacity="1"><g transform="translate(33.098994, 40.081891)"><g><path d="M 5.84375 -7.375 C 5.84375 -6.632812 6.265625 -5.863281 7.109375 -5.0625 C 7.941406 -4.257812 8.789062 -4.070312 9.65625 -4.5 C 10.195312 -4.769531 10.523438 -5.148438 10.640625 -5.640625 C 10.753906 -6.128906 10.726562 -6.644531 10.5625 -7.1875 C 10.375 -7.78125 10.023438 -8.273438 9.515625 -8.671875 C 8.992188 -9.054688 8.460938 -9.285156 7.921875 -9.359375 C 7.390625 -9.421875 6.910156 -9.300781 6.484375 -9 C 6.054688 -8.6875 5.84375 -8.144531 5.84375 -7.375 Z M 12.125 -1.671875 C 11.769531 -1.398438 11.390625 -1.148438 10.984375 -0.921875 C 10.097656 -0.390625 9.132812 -0.0703125 8.09375 0.03125 C 7.039062 0.113281 6.023438 -0.0078125 5.046875 -0.34375 C 4.304688 -0.601562 3.617188 -0.96875 2.984375 -1.4375 C 2.335938 -1.894531 1.835938 -2.484375 1.484375 -3.203125 C 1.160156 -3.898438 0.976562 -4.71875 0.9375 -5.65625 C 0.882812 -7 1.132812 -8.234375 1.6875 -9.359375 C 1.96875 -9.898438 2.28125 -10.429688 2.625 -10.953125 C 2.96875 -11.460938 3.367188 -11.941406 3.828125 -12.390625 C 4.023438 -12.585938 4.210938 -12.773438 4.390625 -12.953125 C 5.617188 -14.035156 7.007812 -14.785156 8.5625 -15.203125 C 9.769531 -15.535156 10.9375 -15.570312 12.0625 -15.3125 C 11.914062 -18.832031 11.890625 -20.675781 11.984375 -20.84375 C 12.160156 -21.144531 12.382812 -21.347656 12.65625 -21.453125 C 12.945312 -21.585938 13.304688 -21.664062 13.734375 -21.6875 C 14.148438 -21.695312 14.523438 -21.691406 14.859375 -21.671875 C 15.335938 -21.617188 15.710938 -21.492188 15.984375 -21.296875 C 16.265625 -21.085938 16.34375 -19.894531 16.21875 -17.71875 C 16.175781 -13.957031 16.203125 -10.851562 16.296875 -8.40625 C 16.378906 -5.945312 16.710938 -3.773438 17.296875 -1.890625 C 17.347656 -1.691406 17.410156 -1.492188 17.484375 -1.296875 C 17.554688 -1.078125 17.597656 -0.863281 17.609375 -0.65625 C 17.617188 -0.269531 17.4375 0 17.0625 0.15625 C 16.6875 0.320312 16.257812 0.414062 15.78125 0.4375 C 15.28125 0.457031 14.789062 0.425781 14.3125 0.34375 C 13.820312 0.269531 13.476562 0.175781 13.28125 0.0625 C 12.925781 -0.144531 12.65625 -0.453125 12.46875 -0.859375 C 12.332031 -1.140625 12.21875 -1.410156 12.125 -1.671875 Z M 12.125 -1.671875 "/></g></g></g><g fill="#000000" fill-opacity="1"><g transform="translate(51.342748, 40.081891)"><g><path d="M 9.328125 -2 C 8.585938 -1.320312 7.703125 -1.015625 6.671875 -1.078125 C 5.867188 -1.054688 4.988281 -1.375 4.03125 -2.03125 C 3 -2.738281 2.242188 -3.675781 1.765625 -4.84375 C 1.285156 -6.007812 0.96875 -7.179688 0.8125 -8.359375 C 0.707031 -9.191406 0.65625 -10.34375 0.65625 -11.8125 C 0.644531 -13.28125 0.863281 -14.414062 1.3125 -15.21875 C 1.445312 -15.5 1.660156 -15.664062 1.953125 -15.71875 C 2.453125 -15.800781 3.046875 -15.734375 3.734375 -15.515625 C 4.398438 -15.296875 4.859375 -15.0625 5.109375 -14.8125 C 5.222656 -14.71875 5.296875 -14.601562 5.328125 -14.46875 C 5.410156 -14.28125 5.425781 -14.070312 5.375 -13.84375 C 5.320312 -13.613281 5.273438 -13.398438 5.234375 -13.203125 C 5.046875 -12.460938 4.957031 -11.675781 4.96875 -10.84375 C 4.96875 -10.007812 5.039062 -9.234375 5.1875 -8.515625 C 5.28125 -8.023438 5.421875 -7.609375 5.609375 -7.265625 C 6.160156 -6.359375 6.84375 -5.953125 7.65625 -6.046875 C 8.476562 -6.128906 9.0625 -6.804688 9.40625 -8.078125 C 9.75 -9.347656 9.789062 -10.929688 9.53125 -12.828125 C 9.5 -13.066406 9.460938 -13.328125 9.421875 -13.609375 C 9.378906 -13.878906 9.363281 -14.144531 9.375 -14.40625 C 9.4375 -14.894531 9.695312 -15.242188 10.15625 -15.453125 C 10.613281 -15.660156 11.128906 -15.78125 11.703125 -15.8125 C 12.273438 -15.84375 12.832031 -15.804688 13.375 -15.703125 C 13.925781 -15.597656 14.304688 -15.472656 14.515625 -15.328125 C 14.898438 -15.066406 15.164062 -14.679688 15.3125 -14.171875 C 15.457031 -13.660156 15.554688 -13.164062 15.609375 -12.6875 C 15.722656 -11.75 15.75 -10.566406 15.6875 -9.140625 C 15.613281 -7.703125 15.484375 -6.210938 15.296875 -4.671875 C 15.097656 -3.140625 14.929688 -2.226562 14.796875 -1.9375 C 14.660156 -1.632812 14.441406 -1.257812 14.140625 -0.8125 C 13.878906 -0.4375 13.585938 -0.179688 13.265625 -0.046875 C 12.890625 0.117188 12.457031 0.21875 11.96875 0.25 C 11.476562 0.28125 11.039062 0.273438 10.65625 0.234375 C 10.113281 0.171875 9.703125 0.0078125 9.421875 -0.25 C 9.128906 -0.507812 9.085938 -1.015625 9.296875 -1.765625 Z M 9.328125 -2 "/></g></g></g><g fill="#000000" fill-opacity="1"><g transform="translate(67.783882, 40.081891)"><g><path d="M 18.578125 -23.296875 C 19.566406 -23.066406 20.351562 -22.78125 20.9375 -22.4375 C 21.613281 -22.019531 21.953125 -21.53125 21.953125 -20.96875 C 21.953125 -20.300781 21.894531 -19.632812 21.78125 -18.96875 C 21.675781 -18.3125 21.457031 -17.691406 21.125 -17.109375 C 20.644531 -16.273438 20.179688 -15.859375 19.734375 -15.859375 C 19.328125 -15.859375 18.9375 -15.921875 18.5625 -16.046875 C 18.164062 -16.179688 17.78125 -16.3125 17.40625 -16.4375 C 16.625 -16.695312 15.566406 -16.804688 14.234375 -16.765625 C 12.898438 -16.710938 11.644531 -16.425781 10.46875 -15.90625 C 9.289062 -15.375 8.382812 -14.550781 7.75 -13.4375 C 7.113281 -12.332031 7.113281 -10.851562 7.75 -9 C 8.21875 -7.644531 9.171875 -6.671875 10.609375 -6.078125 C 12.054688 -5.472656 13.523438 -5.242188 15.015625 -5.390625 C 16.148438 -5.503906 17.347656 -5.945312 18.609375 -6.71875 C 19.859375 -7.476562 21.109375 -7.207031 22.359375 -5.90625 C 23.085938 -5.132812 23.078125 -4.375 22.328125 -3.625 C 21.578125 -2.863281 20.921875 -2.28125 20.359375 -1.875 C 19.960938 -1.59375 19.570312 -1.359375 19.1875 -1.171875 C 18.132812 -0.609375 17.070312 -0.28125 16 -0.1875 C 14.9375 -0.09375 13.878906 -0.09375 12.828125 -0.1875 C 11.410156 -0.320312 10.054688 -0.648438 8.765625 -1.171875 C 7.742188 -1.566406 6.765625 -2.101562 5.828125 -2.78125 C 4.878906 -3.445312 4.050781 -4.265625 3.34375 -5.234375 C 2.019531 -7.015625 1.132812 -9 0.6875 -11.1875 C -0.03125 -14.5625 0.785156 -17.378906 3.140625 -19.640625 C 4.316406 -20.785156 5.65625 -21.640625 7.15625 -22.203125 C 8.632812 -22.773438 10.066406 -23.175781 11.453125 -23.40625 C 12.609375 -23.59375 13.796875 -23.6875 15.015625 -23.6875 C 16.222656 -23.6875 17.410156 -23.554688 18.578125 -23.296875 Z M 18.578125 -23.296875 "/></g></g></g><g fill="#000000" fill-opacity="1"><g transform="translate(91.792911, 40.081891)"><g><path d="M 1.28125 -9.046875 C 1.90625 -10.265625 2.59375 -11.234375 3.34375 -11.953125 C 3.644531 -12.234375 3.835938 -12.410156 3.921875 -12.484375 C 5.109375 -13.523438 6.457031 -14.242188 7.96875 -14.640625 C 9.257812 -14.984375 10.507812 -14.988281 11.71875 -14.65625 C 12.289062 -14.488281 12.859375 -14.1875 13.421875 -13.75 C 13.992188 -13.300781 14.425781 -12.816406 14.71875 -12.296875 C 15.03125 -11.691406 15.226562 -10.9375 15.3125 -10.03125 C 15.425781 -8.675781 15.300781 -7.460938 14.9375 -6.390625 C 14.71875 -5.734375 14.394531 -5.097656 13.96875 -4.484375 C 13.539062 -3.867188 13.101562 -3.316406 12.65625 -2.828125 C 11.96875 -2.097656 11.1875 -1.484375 10.3125 -0.984375 C 9.445312 -0.472656 8.507812 -0.171875 7.5 -0.078125 C 6.457031 -0.00390625 5.472656 -0.125 4.546875 -0.4375 C 3.816406 -0.6875 3.144531 -1.03125 2.53125 -1.46875 C 1.90625 -1.90625 1.429688 -2.472656 1.109375 -3.171875 C 0.765625 -3.847656 0.578125 -4.628906 0.546875 -5.515625 C 0.492188 -6.785156 0.738281 -7.960938 1.28125 -9.046875 Z M 5.3125 -6.890625 C 5.3125 -6.234375 5.6875 -5.550781 6.4375 -4.84375 C 7.175781 -4.144531 7.929688 -3.976562 8.703125 -4.34375 C 9.191406 -4.582031 9.492188 -4.921875 9.609375 -5.359375 C 9.710938 -5.785156 9.691406 -6.234375 9.546875 -6.703125 C 9.210938 -7.753906 8.425781 -8.390625 7.1875 -8.609375 C 5.9375 -8.828125 5.3125 -8.253906 5.3125 -6.890625 Z M 5.3125 -6.890625 "/></g></g></g><g fill="#000000" fill-opacity="1"><g transform="translate(108.016487, 40.081891)"><g><path d="M 1.28125 -9.046875 C 1.90625 -10.265625 2.59375 -11.234375 3.34375 -11.953125 C 3.644531 -12.234375 3.835938 -12.410156 3.921875 -12.484375 C 5.109375 -13.523438 6.457031 -14.242188 7.96875 -14.640625 C 9.257812 -14.984375 10.507812 -14.988281 11.71875 -14.65625 C 12.289062 -14.488281 12.859375 -14.1875 13.421875 -13.75 C 13.992188 -13.300781 14.425781 -12.816406 14.71875 -12.296875 C 15.03125 -11.691406 15.226562 -10.9375 15.3125 -10.03125 C 15.425781 -8.675781 15.300781 -7.460938 14.9375 -6.390625 C 14.71875 -5.734375 14.394531 -5.097656 13.96875 -4.484375 C 13.539062 -3.867188 13.101562 -3.316406 12.65625 -2.828125 C 11.96875 -2.097656 11.1875 -1.484375 10.3125 -0.984375 C 9.445312 -0.472656 8.507812 -0.171875 7.5 -0.078125 C 6.457031 -0.00390625 5.472656 -0.125 4.546875 -0.4375 C 3.816406 -0.6875 3.144531 -1.03125 2.53125 -1.46875 C 1.90625 -1.90625 1.429688 -2.472656 1.109375 -3.171875 C 0.765625 -3.847656 0.578125 -4.628906 0.546875 -5.515625 C 0.492188 -6.785156 0.738281 -7.960938 1.28125 -9.046875 Z M 5.3125 -6.890625 C 5.3125 -6.234375 5.6875 -5.550781 6.4375 -4.84375 C 7.175781 -4.144531 7.929688 -3.976562 8.703125 -4.34375 C 9.191406 -4.582031 9.492188 -4.921875 9.609375 -5.359375 C 9.710938 -5.785156 9.691406 -6.234375 9.546875 -6.703125 C 9.210938 -7.753906 8.425781 -8.390625 7.1875 -8.609375 C 5.9375 -8.828125 5.3125 -8.253906 5.3125 -6.890625 Z M 5.3125 -6.890625 "/></g></g></g><g fill="#000000" fill-opacity="1"><g transform="translate(124.240064, 40.081891)"><g><path d="M 6.578125 -19.875 C 6.242188 -17.269531 6.125 -14.410156 6.21875 -11.296875 C 6.3125 -8.179688 6.675781 -5.425781 7.3125 -3.03125 C 7.363281 -2.78125 7.429688 -2.519531 7.515625 -2.25 C 7.597656 -1.976562 7.648438 -1.710938 7.671875 -1.453125 C 7.671875 -0.972656 7.46875 -0.628906 7.0625 -0.421875 C 6.644531 -0.210938 6.164062 -0.09375 5.625 -0.0625 C 5.070312 -0.03125 4.535156 -0.0664062 4.015625 -0.171875 C 3.472656 -0.273438 3.09375 -0.398438 2.875 -0.546875 C 2.457031 -0.804688 2.144531 -1.1875 1.9375 -1.6875 C 1.726562 -2.195312 1.566406 -2.691406 1.453125 -3.171875 C 1.234375 -4.085938 1.0625 -5.269531 0.9375 -6.71875 C 0.8125 -8.144531 0.738281 -9.625 0.71875 -11.15625 C 0.695312 -12.675781 0.726562 -14.144531 0.8125 -15.5625 C 0.894531 -16.957031 1.03125 -18.085938 1.21875 -18.953125 C 1.375 -19.765625 1.570312 -20.394531 1.8125 -20.84375 C 2.007812 -21.226562 2.253906 -21.488281 2.546875 -21.625 C 2.890625 -21.769531 3.296875 -21.859375 3.765625 -21.890625 C 4.210938 -21.921875 4.625 -21.914062 5 -21.875 C 5.53125 -21.8125 5.953125 -21.660156 6.265625 -21.421875 C 6.578125 -21.160156 6.679688 -20.644531 6.578125 -19.875 Z M 6.578125 -19.875 "/></g></g></g><g fill="#000000" fill-opacity="1"><g transform="translate(9.664939, 40.081891)"><g><path d="M 2.265625 -22.1875 C 2.503906 -22.289062 2.757812 -22.378906 3.03125 -22.453125 C 3.300781 -22.515625 3.566406 -22.59375 3.828125 -22.6875 C 5.523438 -23.257812 7.578125 -23.71875 9.984375 -24.0625 C 12.367188 -24.394531 14.515625 -24.425781 16.421875 -24.15625 C 16.910156 -24.082031 17.421875 -23.96875 17.953125 -23.8125 C 18.484375 -23.644531 18.898438 -23.375 19.203125 -23 C 19.546875 -22.5625 19.820312 -21.640625 20.03125 -20.234375 C 20.226562 -18.816406 19.84375 -18.070312 18.875 -18 C 18.613281 -17.976562 18.34375 -17.992188 18.0625 -18.046875 C 17.78125 -18.097656 17.515625 -18.144531 17.265625 -18.1875 C 15.484375 -18.46875 13.828125 -18.582031 12.296875 -18.53125 C 10.765625 -18.46875 9.179688 -18.289062 7.546875 -18 C 7.523438 -16.6875 7.5625 -15.4375 7.65625 -14.25 C 9.039062 -14.414062 10.363281 -14.5625 11.625 -14.6875 C 12.882812 -14.8125 13.753906 -14.867188 14.234375 -14.859375 C 15.203125 -14.835938 15.6875 -14.222656 15.6875 -13.015625 C 15.675781 -11.796875 15.53125 -11 15.25 -10.625 C 14.90625 -10.164062 14.023438 -9.800781 12.609375 -9.53125 C 11.179688 -9.257812 9.757812 -9.066406 8.34375 -8.953125 C 8.53125 -7.953125 8.773438 -6.960938 9.078125 -5.984375 C 9.316406 -5.992188 9.585938 -6.015625 9.890625 -6.046875 C 10.171875 -6.066406 10.503906 -6.09375 10.890625 -6.125 C 12.359375 -6.238281 13.804688 -6.421875 15.234375 -6.671875 C 16.640625 -6.910156 17.941406 -7.210938 19.140625 -7.578125 C 19.265625 -7.609375 19.394531 -7.648438 19.53125 -7.703125 C 19.65625 -7.753906 19.785156 -7.800781 19.921875 -7.84375 C 20.222656 -7.925781 20.488281 -7.976562 20.71875 -8 C 21.207031 -8.03125 21.554688 -7.835938 21.765625 -7.421875 C 21.984375 -7.015625 22.117188 -6.53125 22.171875 -5.96875 C 22.273438 -4.707031 22.140625 -3.753906 21.765625 -3.109375 C 21.566406 -2.742188 21.195312 -2.414062 20.65625 -2.125 C 20.300781 -1.9375 19.8125 -1.75 19.1875 -1.5625 C 18.257812 -1.289062 17.082031 -1.0625 15.65625 -0.875 C 14.21875 -0.6875 12.738281 -0.554688 11.21875 -0.484375 C 10.300781 -0.421875 9.101562 -0.347656 7.625 -0.265625 C 6.144531 -0.179688 5.035156 -0.289062 4.296875 -0.59375 C 3.742188 -0.8125 3.3125 -1.171875 3 -1.671875 C 2.6875 -2.171875 2.4375 -2.664062 2.25 -3.15625 C 1.875 -4.070312 1.554688 -5.265625 1.296875 -6.734375 C 1.015625 -8.191406 0.800781 -9.703125 0.65625 -11.265625 C 0.507812 -12.816406 0.4375 -14.328125 0.4375 -15.796875 C 0.4375 -17.242188 0.53125 -18.425781 0.71875 -19.34375 C 0.882812 -20.175781 1.109375 -20.84375 1.390625 -21.34375 C 1.597656 -21.726562 1.890625 -22.007812 2.265625 -22.1875 Z M 2.265625 -22.1875 "/></g></g></g><g fill="#000000" fill-opacity="1"><g transform="translate(33.098994, 40.081891)"><g><path d="M 5.84375 -7.375 C 5.84375 -6.632812 6.265625 -5.863281 7.109375 -5.0625 C 7.941406 -4.257812 8.789062 -4.070312 9.65625 -4.5 C 10.195312 -4.769531 10.523438 -5.148438 10.640625 -5.640625 C 10.753906 -6.128906 10.726562 -6.644531 10.5625 -7.1875 C 10.375 -7.78125 10.023438 -8.273438 9.515625 -8.671875 C 8.992188 -9.054688 8.460938 -9.285156 7.921875 -9.359375 C 7.390625 -9.421875 6.910156 -9.300781 6.484375 -9 C 6.054688 -8.6875 5.84375 -8.144531 5.84375 -7.375 Z M 12.125 -1.671875 C 11.769531 -1.398438 11.390625 -1.148438 10.984375 -0.921875 C 10.097656 -0.390625 9.132812 -0.0703125 8.09375 0.03125 C 7.039062 0.113281 6.023438 -0.0078125 5.046875 -0.34375 C 4.304688 -0.601562 3.617188 -0.96875 2.984375 -1.4375 C 2.335938 -1.894531 1.835938 -2.484375 1.484375 -3.203125 C 1.160156 -3.898438 0.976562 -4.71875 0.9375 -5.65625 C 0.882812 -7 1.132812 -8.234375 1.6875 -9.359375 C 1.96875 -9.898438 2.28125 -10.429688 2.625 -10.953125 C 2.96875 -11.460938 3.367188 -11.941406 3.828125 -12.390625 C 4.023438 -12.585938 4.210938 -12.773438 4.390625 -12.953125 C 5.617188 -14.035156 7.007812 -14.785156 8.5625 -15.203125 C 9.769531 -15.535156 10.9375 -15.570312 12.0625 -15.3125 C 11.914062 -18.832031 11.890625 -20.675781 11.984375 -20.84375 C 12.160156 -21.144531 12.382812 -21.347656 12.65625 -21.453125 C 12.945312 -21.585938 13.304688 -21.664062 13.734375 -21.6875 C 14.148438 -21.695312 14.523438 -21.691406 14.859375 -21.671875 C 15.335938 -21.617188 15.710938 -21.492188 15.984375 -21.296875 C 16.265625 -21.085938 16.34375 -19.894531 16.21875 -17.71875 C 16.175781 -13.957031 16.203125 -10.851562 16.296875 -8.40625 C 16.378906 -5.945312 16.710938 -3.773438 17.296875 -1.890625 C 17.347656 -1.691406 17.410156 -1.492188 17.484375 -1.296875 C 17.554688 -1.078125 17.597656 -0.863281 17.609375 -0.65625 C 17.617188 -0.269531 17.4375 0 17.0625 0.15625 C 16.6875 0.320312 16.257812 0.414062 15.78125 0.4375 C 15.28125 0.457031 14.789062 0.425781 14.3125 0.34375 C 13.820312 0.269531 13.476562 0.175781 13.28125 0.0625 C 12.925781 -0.144531 12.65625 -0.453125 12.46875 -0.859375 C 12.332031 -1.140625 12.21875 -1.410156 12.125 -1.671875 Z M 12.125 -1.671875 "/></g></g></g><g fill="#000000" fill-opacity="1"><g transform="translate(51.342748, 40.081891)"><g><path d="M 9.328125 -2 C 8.585938 -1.320312 7.703125 -1.015625 6.671875 -1.078125 C 5.867188 -1.054688 4.988281 -1.375 4.03125 -2.03125 C 3 -2.738281 2.242188 -3.675781 1.765625 -4.84375 C 1.285156 -6.007812 0.96875 -7.179688 0.8125 -8.359375 C 0.707031 -9.191406 0.65625 -10.34375 0.65625 -11.8125 C 0.644531 -13.28125 0.863281 -14.414062 1.3125 -15.21875 C 1.445312 -15.5 1.660156 -15.664062 1.953125 -15.71875 C 2.453125 -15.800781 3.046875 -15.734375 3.734375 -15.515625 C 4.398438 -15.296875 4.859375 -15.0625 5.109375 -14.8125 C 5.222656 -14.71875 5.296875 -14.601562 5.328125 -14.46875 C 5.410156 -14.28125 5.425781 -14.070312 5.375 -13.84375 C 5.320312 -13.613281 5.273438 -13.398438 5.234375 -13.203125 C 5.046875 -12.460938 4.957031 -11.675781 4.96875 -10.84375 C 4.96875 -10.007812 5.039062 -9.234375 5.1875 -8.515625 C 5.28125 -8.023438 5.421875 -7.609375 5.609375 -7.265625 C 6.160156 -6.359375 6.84375 -5.953125 7.65625 -6.046875 C 8.476562 -6.128906 9.0625 -6.804688 9.40625 -8.078125 C 9.75 -9.347656 9.789062 -10.929688 9.53125 -12.828125 C 9.5 -13.066406 9.460938 -13.328125 9.421875 -13.609375 C 9.378906 -13.878906 9.363281 -14.144531 9.375 -14.40625 C 9.4375 -14.894531 9.695312 -15.242188 10.15625 -15.453125 C 10.613281 -15.660156 11.128906 -15.78125 11.703125 -15.8125 C 12.273438 -15.84375 12.832031 -15.804688 13.375 -15.703125 C 13.925781 -15.597656 14.304688 -15.472656 14.515625 -15.328125 C 14.898438 -15.066406 15.164062 -14.679688 15.3125 -14.171875 C 15.457031 -13.660156 15.554688 -13.164062 15.609375 -12.6875 C 15.722656 -11.75 15.75 -10.566406 15.6875 -9.140625 C 15.613281 -7.703125 15.484375 -6.210938 15.296875 -4.671875 C 15.097656 -3.140625 14.929688 -2.226562 14.796875 -1.9375 C 14.660156 -1.632812 14.441406 -1.257812 14.140625 -0.8125 C 13.878906 -0.4375 13.585938 -0.179688 13.265625 -0.046875 C 12.890625 0.117188 12.457031 0.21875 11.96875 0.25 C 11.476562 0.28125 11.039062 0.273438 10.65625 0.234375 C 10.113281 0.171875 9.703125 0.0078125 9.421875 -0.25 C 9.128906 -0.507812 9.085938 -1.015625 9.296875 -1.765625 Z M 9.328125 -2 "/></g></g></g><g fill="#000000" fill-opacity="1"><g transform="translate(67.783882, 40.081891)"><g><path d="M 18.578125 -23.296875 C 19.566406 -23.066406 20.351562 -22.78125 20.9375 -22.4375 C 21.613281 -22.019531 21.953125 -21.53125 21.953125 -20.96875 C 21.953125 -20.300781 21.894531 -19.632812 21.78125 -18.96875 C 21.675781 -18.3125 21.457031 -17.691406 21.125 -17.109375 C 20.644531 -16.273438 20.179688 -15.859375 19.734375 -15.859375 C 19.328125 -15.859375 18.9375 -15.921875 18.5625 -16.046875 C 18.164062 -16.179688 17.78125 -16.3125 17.40625 -16.4375 C 16.625 -16.695312 15.566406 -16.804688 14.234375 -16.765625 C 12.898438 -16.710938 11.644531 -16.425781 10.46875 -15.90625 C 9.289062 -15.375 8.382812 -14.550781 7.75 -13.4375 C 7.113281 -12.332031 7.113281 -10.851562 7.75 -9 C 8.21875 -7.644531 9.171875 -6.671875 10.609375 -6.078125 C 12.054688 -5.472656 13.523438 -5.242188 15.015625 -5.390625 C 16.148438 -5.503906 17.347656 -5.945312 18.609375 -6.71875 C 19.859375 -7.476562 21.109375 -7.207031 22.359375 -5.90625 C 23.085938 -5.132812 23.078125 -4.375 22.328125 -3.625 C 21.578125 -2.863281 20.921875 -2.28125 20.359375 -1.875 C 19.960938 -1.59375 19.570312 -1.359375 19.1875 -1.171875 C 18.132812 -0.609375 17.070312 -0.28125 16 -0.1875 C 14.9375 -0.09375 13.878906 -0.09375 12.828125 -0.1875 C 11.410156 -0.320312 10.054688 -0.648438 8.765625 -1.171875 C 7.742188 -1.566406 6.765625 -2.101562 5.828125 -2.78125 C 4.878906 -3.445312 4.050781 -4.265625 3.34375 -5.234375 C 2.019531 -7.015625 1.132812 -9 0.6875 -11.1875 C -0.03125 -14.5625 0.785156 -17.378906 3.140625 -19.640625 C 4.316406 -20.785156 5.65625 -21.640625 7.15625 -22.203125 C 8.632812 -22.773438 10.066406 -23.175781 11.453125 -23.40625 C 12.609375 -23.59375 13.796875 -23.6875 15.015625 -23.6875 C 16.222656 -23.6875 17.410156 -23.554688 18.578125 -23.296875 Z M 18.578125 -23.296875 "/></g></g></g><g fill="#000000" fill-opacity="1"><g transform="translate(91.792911, 40.081891)"><g><path d="M 1.28125 -9.046875 C 1.90625 -10.265625 2.59375 -11.234375 3.34375 -11.953125 C 3.644531 -12.234375 3.835938 -12.410156 3.921875 -12.484375 C 5.109375 -13.523438 6.457031 -14.242188 7.96875 -14.640625 C 9.257812 -14.984375 10.507812 -14.988281 11.71875 -14.65625 C 12.289062 -14.488281 12.859375 -14.1875 13.421875 -13.75 C 13.992188 -13.300781 14.425781 -12.816406 14.71875 -12.296875 C 15.03125 -11.691406 15.226562 -10.9375 15.3125 -10.03125 C 15.425781 -8.675781 15.300781 -7.460938 14.9375 -6.390625 C 14.71875 -5.734375 14.394531 -5.097656 13.96875 -4.484375 C 13.539062 -3.867188 13.101562 -3.316406 12.65625 -2.828125 C 11.96875 -2.097656 11.1875 -1.484375 10.3125 -0.984375 C 9.445312 -0.472656 8.507812 -0.171875 7.5 -0.078125 C 6.457031 -0.00390625 5.472656 -0.125 4.546875 -0.4375 C 3.816406 -0.6875 3.144531 -1.03125 2.53125 -1.46875 C 1.90625 -1.90625 1.429688 -2.472656 1.109375 -3.171875 C 0.765625 -3.847656 0.578125 -4.628906 0.546875 -5.515625 C 0.492188 -6.785156 0.738281 -7.960938 1.28125 -9.046875 Z M 5.3125 -6.890625 C 5.3125 -6.234375 5.6875 -5.550781 6.4375 -4.84375 C 7.175781 -4.144531 7.929688 -3.976562 8.703125 -4.34375 C 9.191406 -4.582031 9.492188 -4.921875 9.609375 -5.359375 C 9.710938 -5.785156 9.691406 -6.234375 9.546875 -6.703125 C 9.210938 -7.753906 8.425781 -8.390625 7.1875 -8.609375 C 5.9375 -8.828125 5.3125 -8.253906 5.3125 -6.890625 Z M 5.3125 -6.890625 "/></g></g></g><g fill="#000000" fill-opacity="1"><g transform="translate(108.016487, 40.081891)"><g><path d="M 1.28125 -9.046875 C 1.90625 -10.265625 2.59375 -11.234375 3.34375 -11.953125 C 3.644531 -12.234375 3.835938 -12.410156 3.921875 -12.484375 C 5.109375 -13.523438 6.457031 -14.242188 7.96875 -14.640625 C 9.257812 -14.984375 10.507812 -14.988281 11.71875 -14.65625 C 12.289062 -14.488281 12.859375 -14.1875 13.421875 -13.75 C 13.992188 -13.300781 14.425781 -12.816406 14.71875 -12.296875 C 15.03125 -11.691406 15.226562 -10.9375 15.3125 -10.03125 C 15.425781 -8.675781 15.300781 -7.460938 14.9375 -6.390625 C 14.71875 -5.734375 14.394531 -5.097656 13.96875 -4.484375 C 13.539062 -3.867188 13.101562 -3.316406 12.65625 -2.828125 C 11.96875 -2.097656 11.1875 -1.484375 10.3125 -0.984375 C 9.445312 -0.472656 8.507812 -0.171875 7.5 -0.078125 C 6.457031 -0.00390625 5.472656 -0.125 4.546875 -0.4375 C 3.816406 -0.6875 3.144531 -1.03125 2.53125 -1.46875 C 1.90625 -1.90625 1.429688 -2.472656 1.109375 -3.171875 C 0.765625 -3.847656 0.578125 -4.628906 0.546875 -5.515625 C 0.492188 -6.785156 0.738281 -7.960938 1.28125 -9.046875 Z M 5.3125 -6.890625 C 5.3125 -6.234375 5.6875 -5.550781 6.4375 -4.84375 C 7.175781 -4.144531 7.929688 -3.976562 8.703125 -4.34375 C 9.191406 -4.582031 9.492188 -4.921875 9.609375 -5.359375 C 9.710938 -5.785156 9.691406 -6.234375 9.546875 -6.703125 C 9.210938 -7.753906 8.425781 -8.390625 7.1875 -8.609375 C 5.9375 -8.828125 5.3125 -8.253906 5.3125 -6.890625 Z M 5.3125 -6.890625 "/></g></g></g><g fill="#000000" fill-opacity="1"><g transform="translate(124.240064, 40.081891)"><g><path d="M 6.578125 -19.875 C 6.242188 -17.269531 6.125 -14.410156 6.21875 -11.296875 C 6.3125 -8.179688 6.675781 -5.425781 7.3125 -3.03125 C 7.363281 -2.78125 7.429688 -2.519531 7.515625 -2.25 C 7.597656 -1.976562 7.648438 -1.710938 7.671875 -1.453125 C 7.671875 -0.972656 7.46875 -0.628906 7.0625 -0.421875 C 6.644531 -0.210938 6.164062 -0.09375 5.625 -0.0625 C 5.070312 -0.03125 4.535156 -0.0664062 4.015625 -0.171875 C 3.472656 -0.273438 3.09375 -0.398438 2.875 -0.546875 C 2.457031 -0.804688 2.144531 -1.1875 1.9375 -1.6875 C 1.726562 -2.195312 1.566406 -2.691406 1.453125 -3.171875 C 1.234375 -4.085938 1.0625 -5.269531 0.9375 -6.71875 C 0.8125 -8.144531 0.738281 -9.625 0.71875 -11.15625 C 0.695312 -12.675781 0.726562 -14.144531 0.8125 -15.5625 C 0.894531 -16.957031 1.03125 -18.085938 1.21875 -18.953125 C 1.375 -19.765625 1.570312 -20.394531 1.8125 -20.84375 C 2.007812 -21.226562 2.253906 -21.488281 2.546875 -21.625 C 2.890625 -21.769531 3.296875 -21.859375 3.765625 -21.890625 C 4.210938 -21.921875 4.625 -21.914062 5 -21.875 C 5.53125 -21.8125 5.953125 -21.660156 6.265625 -21.421875 C 6.578125 -21.160156 6.679688 -20.644531 6.578125 -19.875 Z M 6.578125 -19.875 "/></g></g></g></svg>